<svg xmlns="http://www.w3.org/2000/svg" xmlns:xlink="http://www.w3.org/1999/xlink" width="500" zoomAndPan="magnify" viewBox="0 0 375 374.999991" height="500" preserveAspectRatio="xMidYMid meet" version="1.0"><defs><g/><clipPath id="4295954603"><path d="M 0.00390625 20.757812 L 375 20.757812 L 375 339.507812 L 0.00390625 339.507812 Z M 0.00390625 20.757812 " clip-rule="nonzero"/></clipPath><clipPath id="21a1e2bd9e"><path d="M 374.996094 180.132812 L 282.269531 339.507812 L 92.726562 339.507812 L 0.00390625 180.132812 L 92.726562 20.757812 L 282.269531 20.757812 L 374.996094 180.132812 " clip-rule="nonzero"/></clipPath><clipPath id="1553476260"><path d="M 71.144531 63.773438 L 306.644531 63.773438 L 306.644531 299.273438 L 71.144531 299.273438 Z M 71.144531 63.773438 " clip-rule="nonzero"/></clipPath></defs><g clip-path="url(#4295954603)"><g clip-path="url(#21a1e2bd9e)"><path stroke-linecap="butt" transform="matrix(0.75, 0, 0, 0.750028, 0.00465206, 20.756249)" fill="none" stroke-linejoin="miter" d="M 499.988622 212.494286 L 376.353197 424.986487 L 123.629222 424.986487 L -0.000994415 212.494286 L 123.629222 0.00208507 L 376.353197 0.00208507 L 499.988622 212.494286 " stroke="#d9d9d9" stroke-width="162" stroke-opacity="1" stroke-miterlimit="4"/></g></g><g fill="#d9d9d9" fill-opacity="1"><g transform="translate(146.848529, 246.645109)"><g><path d="M 23.058594 -129.609375 C 21.660156 -129.609375 20.261719 -129.433594 18.691406 -129.085938 C 16.59375 -128.210938 15.371094 -126.988281 15.371094 -124.542969 C 15.371094 -122.273438 14.847656 -120 15.023438 -117.90625 L 15.023438 -117.382812 C 14.324219 -115.984375 14.496094 -114.414062 14.671875 -112.839844 C 14.671875 -111.269531 15.023438 -109.695312 15.371094 -108.125 C 15.894531 -106.902344 16.59375 -106.378906 17.992188 -106.378906 C 19.039062 -106.378906 20.085938 -106.203125 21.136719 -106.550781 C 21.308594 -106.550781 21.660156 -106.550781 21.835938 -106.378906 C 22.53125 -105.679688 23.582031 -106.027344 24.453125 -106.027344 L 26.027344 -106.027344 C 27.773438 -106.027344 29.34375 -105.679688 30.917969 -105.503906 L 37.90625 -105.503906 C 38.601562 -105.503906 39.128906 -105.503906 39.652344 -105.851562 C 40.351562 -106.027344 41.398438 -105.679688 41.921875 -106.203125 C 42.96875 -107.074219 43.320312 -105.679688 44.019531 -105.503906 L 47.6875 -104.457031 C 48.035156 -104.457031 48.210938 -104.457031 48.386719 -104.105469 C 49.257812 -102.882812 50.480469 -102.011719 51.179688 -100.789062 C 52.578125 -98.34375 52.578125 -95.371094 53.800781 -92.925781 L 53.800781 -92.578125 C 53.101562 -91.703125 53.625 -90.832031 53.625 -89.957031 C 53.625 -86.8125 53.625 -83.667969 53.277344 -80.523438 C 53.101562 -79.128906 53.625 -77.554688 52.925781 -76.160156 L 52.925781 -59.738281 C 52.925781 -58.691406 53.101562 -57.46875 52.925781 -56.246094 C 52.75 -54.148438 52.75 -52.054688 52.75 -49.957031 L 51.878906 -40.523438 C 51.703125 -38.078125 51.179688 -35.808594 50.480469 -33.539062 C 49.957031 -32.316406 49.609375 -30.917969 48.734375 -29.871094 C 47.6875 -28.472656 46.289062 -27.074219 44.71875 -25.851562 C 42.621094 -24.453125 40.351562 -23.582031 37.90625 -23.230469 C 33.886719 -22.707031 30.21875 -23.753906 26.898438 -25.675781 C 24.980469 -26.550781 23.230469 -27.773438 21.484375 -28.996094 C 20.785156 -29.34375 20.261719 -29.871094 19.5625 -30.042969 C 17.992188 -30.394531 15.722656 -31.617188 14.496094 -32.839844 C 14.148438 -33.1875 13.800781 -33.1875 13.101562 -33.011719 C 10.828125 -32.664062 9.257812 -30.917969 7.511719 -29.695312 C 5.589844 -28.472656 4.367188 -26.375 2.96875 -24.28125 C 1.921875 -22.707031 1.046875 -20.960938 0.347656 -19.039062 C -0.523438 -16.417969 0.175781 -14.324219 1.746094 -12.402344 C 2.097656 -11.878906 2.445312 -11.527344 2.96875 -12.402344 C 3.144531 -12.578125 3.320312 -12.578125 3.492188 -12.402344 C 3.667969 -12.402344 3.667969 -12.226562 3.667969 -12.050781 C 3.320312 -11.179688 3.667969 -10.65625 4.367188 -10.132812 L 5.242188 -9.433594 C 8.558594 -7.160156 12.050781 -5.765625 15.722656 -4.191406 C 17.46875 -3.492188 19.390625 -2.792969 21.484375 -2.269531 C 23.929688 -1.746094 26.203125 -0.875 28.820312 -0.699219 C 30.566406 -0.699219 32.316406 0.347656 34.0625 -0.523438 C 34.234375 -0.523438 34.585938 -0.347656 34.761719 -0.347656 C 35.984375 0 37.207031 0.175781 38.429688 -0.523438 C 38.777344 -0.699219 39.300781 -0.875 39.476562 -0.523438 C 40.175781 0 40.875 -0.175781 41.574219 -0.175781 C 42.621094 0 43.667969 -0.347656 44.71875 -0.347656 C 48.386719 -0.523438 51.703125 -1.570312 55.023438 -2.445312 C 57.46875 -3.320312 59.914062 -4.542969 62.183594 -5.765625 C 63.230469 -6.289062 64.28125 -6.636719 65.152344 -7.511719 C 65.851562 -8.210938 66.375 -9.257812 67.597656 -9.433594 C 67.773438 -9.433594 67.949219 -9.605469 68.125 -9.78125 C 69.519531 -10.828125 70.570312 -12.050781 71.792969 -13.449219 C 72.839844 -14.496094 73.710938 -15.722656 74.410156 -17.117188 C 75.808594 -19.914062 77.382812 -22.882812 77.90625 -26.203125 C 78.253906 -27.949219 78.605469 -29.871094 78.605469 -31.617188 C 78.777344 -36.507812 78.605469 -41.398438 78.953125 -46.113281 C 79.128906 -47.511719 78.953125 -49.082031 78.953125 -50.480469 C 79.300781 -60.785156 78.605469 -71.09375 79.300781 -81.222656 C 79.476562 -83.496094 79.476562 -85.765625 79.300781 -88.035156 C 79.300781 -88.558594 79.476562 -89.257812 78.953125 -89.609375 C 78.777344 -89.957031 78.953125 -90.308594 78.953125 -90.65625 C 79.652344 -92.054688 79.652344 -93.625 78.953125 -95.199219 C 78.777344 -95.722656 78.605469 -96.246094 78.953125 -96.769531 C 79.476562 -97.46875 79.476562 -98.34375 79.476562 -99.039062 L 79.476562 -116.859375 C 79.476562 -118.082031 79.476562 -119.304688 79.300781 -120.699219 L 79.300781 -123.320312 C 79.652344 -125.417969 78.429688 -126.8125 77.03125 -127.863281 C 75.460938 -128.910156 73.539062 -128.910156 71.792969 -128.386719 C 70.917969 -128.210938 70.394531 -128.035156 69.695312 -128.386719 C 69.347656 -128.5625 68.996094 -128.5625 68.648438 -128.5625 C 66.027344 -128.5625 63.582031 -128.734375 60.960938 -128.5625 C 59.738281 -128.386719 58.515625 -128.210938 57.292969 -128.5625 C 55.894531 -128.734375 54.5 -128.5625 53.101562 -128.5625 C 51.878906 -128.5625 51.527344 -128.210938 51.527344 -126.988281 C 51.527344 -126.640625 51.527344 -126.289062 51.703125 -125.941406 C 51.878906 -125.242188 51.703125 -124.71875 51.179688 -124.195312 C 50.65625 -123.496094 50.832031 -122.972656 51.179688 -122.273438 C 51.355469 -121.921875 51.527344 -121.574219 51.527344 -121.222656 C 51.527344 -120.699219 51.527344 -120 50.832031 -119.828125 C 50.132812 -119.476562 49.957031 -120 49.609375 -120.527344 C 48.558594 -121.921875 48.386719 -122.097656 46.8125 -121.574219 C 46.289062 -121.398438 46.113281 -121.222656 45.941406 -120.875 C 45.589844 -120.699219 45.242188 -120.527344 45.066406 -120.699219 C 44.542969 -120.875 44.71875 -121.222656 44.71875 -121.574219 C 44.71875 -121.921875 44.890625 -122.273438 45.066406 -122.621094 C 45.414062 -123.496094 45.765625 -123.667969 46.464844 -123.144531 C 47.335938 -122.621094 48.035156 -122.621094 48.734375 -123.320312 L 49.433594 -123.667969 C 49.78125 -123.84375 49.957031 -123.84375 49.957031 -124.195312 C 50.132812 -125.242188 50.65625 -126.117188 50.480469 -126.988281 C 50.480469 -128.035156 50.132812 -128.386719 49.082031 -128.5625 L 47.335938 -128.5625 C 43.492188 -128.386719 39.652344 -128.734375 35.808594 -128.910156 C 35.632812 -128.910156 35.460938 -128.910156 35.285156 -129.085938 C 33.1875 -129.433594 31.09375 -129.609375 28.820312 -129.609375 Z M 66.375 -46.988281 C 66.726562 -46.636719 67.25 -46.8125 67.425781 -47.164062 C 67.597656 -47.511719 67.773438 -47.859375 67.773438 -48.386719 C 67.949219 -48.910156 67.425781 -48.734375 67.074219 -48.910156 C 66.375 -49.082031 66.375 -49.609375 66.203125 -50.304688 L 66.203125 -51.878906 C 66.203125 -52.054688 66.027344 -52.402344 66.375 -52.578125 C 66.550781 -52.578125 66.726562 -52.578125 66.902344 -52.402344 C 67.425781 -52.054688 67.773438 -51.527344 67.425781 -51.179688 C 66.902344 -50.480469 67.425781 -50.304688 67.773438 -50.304688 C 68.648438 -50.65625 69.871094 -50.65625 70.394531 -51.703125 C 70.742188 -52.402344 71.265625 -52.402344 71.792969 -52.402344 C 72.140625 -52.402344 72.316406 -51.878906 72.140625 -51.703125 C 71.09375 -50.832031 71.265625 -50.132812 71.964844 -49.082031 C 72.488281 -48.558594 72.316406 -48.210938 71.617188 -47.859375 C 71.09375 -47.511719 70.570312 -46.988281 69.871094 -47.6875 C 69.519531 -47.859375 69.171875 -48.210938 68.648438 -47.6875 C 68.472656 -47.511719 68.296875 -46.289062 68.648438 -46.113281 C 69.171875 -45.414062 69.695312 -44.890625 70.042969 -44.019531 C 70.394531 -43.320312 70.21875 -42.96875 69.519531 -42.621094 C 68.996094 -42.445312 68.648438 -42.269531 68.472656 -41.574219 C 68.296875 -41.046875 67.773438 -41.222656 67.425781 -41.398438 C 67.074219 -41.574219 66.902344 -41.921875 67.25 -42.269531 L 67.773438 -43.320312 C 67.949219 -44.019531 67.773438 -44.367188 67.074219 -44.542969 L 64.980469 -45.066406 C 64.628906 -45.242188 64.453125 -45.414062 64.628906 -45.765625 C 65.152344 -46.464844 64.980469 -47.164062 65.328125 -48.035156 Z M 65.503906 -29.695312 C 65.328125 -28.472656 65.503906 -27.597656 66.726562 -27.074219 C 67.425781 -26.898438 67.25 -26.375 67.074219 -25.851562 C 66.902344 -25.503906 66.027344 -25.328125 65.679688 -25.675781 C 65.328125 -26.203125 64.980469 -26.375 64.28125 -26.375 C 63.929688 -26.375 63.757812 -26.898438 63.757812 -27.425781 C 63.929688 -28.472656 63.058594 -29.34375 62.882812 -30.394531 C 62.882812 -30.566406 62.707031 -30.917969 62.535156 -30.917969 C 62.183594 -30.917969 62.007812 -30.742188 62.007812 -30.394531 C 62.007812 -29.871094 61.484375 -29.519531 61.3125 -29.171875 C 60.960938 -28.648438 60.4375 -28.648438 60.089844 -28.820312 C 59.5625 -28.996094 59.738281 -29.34375 59.738281 -29.695312 C 59.914062 -30.394531 59.914062 -31.09375 59.390625 -31.789062 C 59.039062 -32.488281 59.214844 -33.1875 59.738281 -33.539062 C 60.089844 -33.886719 61.136719 -34.0625 61.484375 -33.539062 C 62.007812 -33.011719 62.707031 -32.664062 63.40625 -32.488281 L 64.105469 -31.789062 C 64.28125 -31.09375 64.804688 -31.09375 65.328125 -31.09375 C 66.027344 -31.265625 66.027344 -31.617188 66.027344 -32.140625 C 65.851562 -32.664062 66.375 -32.839844 66.726562 -32.664062 C 67.25 -32.316406 67.425781 -31.789062 67.949219 -31.617188 C 68.125 -31.441406 68.125 -31.265625 68.125 -31.265625 C 67.949219 -30.566406 67.773438 -29.695312 67.773438 -28.996094 C 67.773438 -28.820312 67.425781 -28.648438 67.25 -28.820312 C 66.726562 -29.34375 66.027344 -29.171875 65.503906 -29.695312 Z M 69.871094 -114.238281 C 70.742188 -113.714844 71.265625 -113.363281 71.792969 -112.839844 C 72.316406 -112.316406 72.316406 -111.964844 71.792969 -111.269531 C 71.617188 -110.917969 71.265625 -110.394531 70.570312 -110.917969 C 70.042969 -111.441406 68.996094 -110.570312 69.171875 -109.871094 C 69.171875 -109.171875 69.171875 -108.824219 68.472656 -108.648438 C 67.949219 -108.472656 67.949219 -108.125 68.296875 -107.773438 C 68.820312 -107.074219 68.648438 -106.378906 68.125 -105.679688 C 68.472656 -105.328125 68.820312 -105.679688 69.171875 -105.851562 C 69.519531 -105.851562 69.695312 -105.851562 69.871094 -105.679688 C 70.042969 -105.328125 69.871094 -105.15625 69.695312 -104.804688 C 69.347656 -104.628906 69.171875 -104.457031 68.820312 -104.628906 C 67.25 -104.980469 65.503906 -105.15625 63.582031 -105.328125 C 64.28125 -106.027344 64.453125 -106.550781 64.105469 -107.425781 C 63.929688 -107.425781 63.929688 -107.773438 64.105469 -107.773438 C 64.28125 -107.949219 64.453125 -107.949219 64.628906 -107.773438 C 64.980469 -107.25 65.503906 -107.25 65.851562 -107.949219 C 66.375 -108.296875 66.375 -109.347656 66.027344 -109.695312 C 65.328125 -110.21875 65.503906 -110.570312 66.203125 -110.742188 C 66.726562 -111.09375 67.25 -111.441406 67.949219 -111.617188 C 68.996094 -111.792969 69.519531 -112.492188 69.695312 -113.714844 C 69.695312 -113.714844 69.871094 -113.886719 69.871094 -114.238281 Z M 65.503906 -60.785156 C 64.980469 -60.785156 64.804688 -60.785156 64.453125 -61.136719 L 63.757812 -62.183594 C 63.40625 -62.707031 63.40625 -62.882812 64.105469 -63.058594 C 64.628906 -63.230469 64.804688 -63.582031 64.628906 -64.105469 C 64.453125 -64.804688 64.105469 -65.328125 63.929688 -65.851562 C 63.757812 -66.550781 63.929688 -67.074219 64.453125 -67.25 C 65.152344 -67.425781 65.679688 -66.902344 65.851562 -66.203125 C 65.851562 -65.679688 65.851562 -65.152344 66.027344 -64.628906 C 66.203125 -63.929688 66.550781 -63.40625 67.25 -63.40625 C 68.125 -63.230469 68.648438 -63.582031 68.820312 -64.105469 C 69.171875 -64.628906 69.519531 -64.980469 70.042969 -64.453125 C 70.394531 -64.105469 70.742188 -64.28125 71.265625 -64.453125 C 71.441406 -64.628906 71.792969 -64.804688 72.140625 -64.804688 C 73.015625 -64.804688 73.363281 -64.105469 72.839844 -63.757812 C 71.964844 -62.707031 71.792969 -61.484375 71.617188 -60.261719 C 71.617188 -59.738281 71.265625 -59.5625 70.917969 -59.214844 C 70.21875 -58.867188 69.871094 -59.390625 69.871094 -59.914062 C 69.519531 -60.785156 68.996094 -61.484375 68.125 -62.007812 C 66.726562 -63.058594 66.203125 -62.882812 65.503906 -61.3125 Z M 70.042969 -36.332031 C 70.042969 -35.460938 69.871094 -35.285156 68.820312 -35.460938 C 68.648438 -35.632812 68.472656 -35.632812 68.296875 -35.632812 C 66.375 -36.507812 64.453125 -36.332031 62.535156 -35.460938 C 61.660156 -35.109375 61.484375 -35.285156 61.3125 -36.332031 C 61.136719 -36.855469 60.960938 -37.207031 60.4375 -37.378906 C 59.5625 -37.554688 59.390625 -37.90625 59.5625 -38.601562 C 59.5625 -38.777344 59.5625 -38.777344 59.738281 -38.777344 C 59.914062 -39.128906 59.914062 -39.824219 60.4375 -40 C 60.960938 -40 61.484375 -39.824219 61.835938 -39.300781 C 62.535156 -37.90625 63.929688 -37.730469 64.980469 -37.90625 C 66.375 -38.078125 67.597656 -37.90625 68.996094 -37.554688 C 69.695312 -37.378906 69.871094 -37.207031 70.042969 -36.332031 Z M 65.152344 -120.699219 C 65.152344 -120.351562 64.980469 -119.828125 64.628906 -119.476562 C 63.929688 -118.777344 63.230469 -117.90625 63.058594 -116.859375 C 62.882812 -116.507812 62.882812 -116.160156 62.359375 -116.160156 C 62.007812 -116.160156 61.835938 -116.332031 61.660156 -116.507812 C 61.3125 -117.382812 60.785156 -118.082031 60.261719 -118.605469 C 59.914062 -119.304688 59.5625 -119.304688 59.214844 -118.605469 C 58.339844 -117.554688 56.769531 -117.03125 55.371094 -117.554688 C 55.199219 -117.554688 55.023438 -117.730469 55.023438 -118.082031 C 54.847656 -118.429688 55.199219 -118.429688 55.546875 -118.605469 C 55.894531 -118.777344 56.246094 -118.429688 56.59375 -118.429688 C 57.117188 -118.429688 57.46875 -118.605469 57.46875 -119.304688 C 57.46875 -120 57.992188 -120.175781 58.691406 -120.175781 C 59.390625 -120.175781 60.261719 -120.175781 60.960938 -119.828125 C 61.3125 -119.652344 61.660156 -119.476562 62.007812 -119.476562 C 62.707031 -119.476562 63.058594 -119.828125 63.058594 -120.527344 L 63.058594 -121.921875 C 63.230469 -122.445312 63.40625 -122.621094 64.105469 -122.445312 C 64.804688 -122.097656 65.152344 -121.75 65.152344 -120.699219 Z M 51.878906 -110.917969 C 50.832031 -111.617188 49.609375 -111.964844 48.734375 -112.839844 C 48.386719 -113.1875 48.210938 -113.363281 48.210938 -113.886719 C 48.558594 -115.808594 49.082031 -115.984375 50.65625 -115.460938 C 51.355469 -115.285156 52.054688 -115.285156 52.578125 -115.285156 C 53.277344 -115.109375 53.625 -114.761719 53.449219 -114.238281 C 53.449219 -113.714844 53.101562 -113.539062 52.578125 -113.539062 C 52.226562 -113.363281 52.054688 -113.714844 51.878906 -113.886719 C 51.527344 -114.0625 51.355469 -114.414062 51.003906 -113.886719 C 50.832031 -113.539062 50.832031 -113.1875 51.179688 -113.015625 C 51.355469 -112.664062 51.703125 -112.492188 52.054688 -112.140625 C 52.226562 -112.140625 52.578125 -111.964844 52.75 -111.964844 C 52.925781 -111.792969 53.277344 -111.617188 53.101562 -111.269531 C 53.101562 -110.917969 52.578125 -110.917969 52.226562 -110.917969 Z M 59.039062 -18.691406 C 60.089844 -18.691406 60.613281 -19.390625 60.960938 -20.261719 C 61.136719 -20.785156 61.484375 -20.960938 61.835938 -20.785156 C 62.535156 -20.261719 63.230469 -20.085938 63.929688 -19.914062 C 64.453125 -19.738281 64.804688 -19.390625 64.628906 -18.691406 C 64.453125 -18.167969 64.105469 -17.816406 63.40625 -17.992188 C 62.707031 -18.339844 62.183594 -17.992188 61.835938 -17.292969 C 61.660156 -16.945312 61.3125 -16.769531 60.960938 -16.59375 C 60.613281 -16.417969 60.089844 -16.417969 60.089844 -16.945312 C 59.914062 -17.640625 59.390625 -17.992188 59.039062 -18.691406 Z M 33.011719 -120.527344 C 33.886719 -119.828125 34.585938 -119.476562 35.460938 -119.304688 C 36.15625 -119.304688 36.507812 -118.953125 36.683594 -118.253906 C 36.855469 -117.90625 36.683594 -117.382812 36.332031 -117.207031 C 35.285156 -117.03125 34.234375 -116.332031 33.011719 -116.507812 C 32.664062 -116.507812 32.316406 -116.332031 32.316406 -116.859375 C 32.140625 -117.207031 32.316406 -117.382812 32.664062 -117.382812 C 33.011719 -117.730469 33.011719 -118.082031 33.011719 -118.429688 Z M 68.820312 -83.320312 C 68.648438 -82.796875 68.296875 -82.445312 67.773438 -82.273438 C 67.25 -82.273438 66.902344 -82.445312 66.726562 -82.96875 C 66.375 -83.667969 66.027344 -83.84375 65.328125 -83.667969 C 64.628906 -83.667969 64.453125 -84.019531 64.804688 -84.71875 C 64.980469 -85.242188 65.328125 -85.589844 65.679688 -86.113281 C 65.851562 -86.289062 66.027344 -86.8125 66.550781 -86.640625 C 66.902344 -86.464844 67.074219 -86.113281 67.25 -85.765625 C 67.25 -85.066406 67.425781 -84.542969 67.949219 -84.191406 L 68.648438 -83.84375 C 68.820312 -83.84375 68.820312 -83.667969 68.820312 -83.320312 Z M 64.105469 -56.59375 C 64.28125 -55.894531 63.929688 -55.894531 63.582031 -55.722656 C 62.535156 -55.199219 62.535156 -55.199219 62.007812 -56.070312 C 61.660156 -56.421875 61.3125 -56.59375 60.960938 -56.769531 C 60.261719 -57.292969 60.261719 -57.816406 61.136719 -58.167969 C 61.660156 -58.339844 62.007812 -58.691406 62.359375 -59.039062 C 62.535156 -59.214844 63.058594 -59.390625 63.058594 -59.039062 C 63.40625 -58.167969 64.28125 -57.46875 64.105469 -56.59375 Z M 59.914062 -70.917969 C 60.4375 -70.042969 61.484375 -70.570312 62.359375 -70.21875 C 62.707031 -70.042969 62.707031 -69.695312 62.882812 -69.519531 C 62.882812 -68.820312 62.359375 -68.296875 61.660156 -67.949219 C 60.960938 -67.597656 60.613281 -67.949219 60.261719 -68.296875 C 59.914062 -68.996094 59.5625 -69.695312 58.691406 -69.347656 C 58.339844 -69.171875 58.167969 -69.519531 58.167969 -69.871094 C 58.167969 -70.21875 58.167969 -70.570312 58.691406 -70.570312 C 59.039062 -70.742188 59.390625 -70.394531 59.914062 -70.917969 Z M 24.28125 -13.101562 C 24.804688 -12.925781 25.328125 -12.925781 26.027344 -13.273438 C 26.550781 -13.625 27.074219 -13.800781 27.597656 -13.101562 C 27.773438 -12.578125 28.472656 -12.75 28.648438 -12.226562 C 28.121094 -11.355469 27.25 -11.179688 26.203125 -11.003906 C 25.503906 -10.828125 24.980469 -11.527344 24.28125 -11.878906 C 23.929688 -12.050781 24.105469 -12.578125 24.28125 -13.101562 Z M 58.691406 -107.949219 C 58.691406 -107.949219 58.867188 -107.949219 58.867188 -107.773438 C 59.214844 -107.074219 60.613281 -107.074219 60.613281 -106.027344 C 60.613281 -105.851562 60.785156 -105.679688 60.960938 -105.503906 C 61.3125 -105.328125 61.835938 -105.15625 61.835938 -104.628906 C 61.835938 -104.105469 61.660156 -103.40625 61.484375 -102.707031 C 61.484375 -102.535156 61.3125 -102.359375 60.960938 -102.359375 C 60.613281 -102.359375 60.613281 -102.707031 60.613281 -102.882812 C 60.785156 -103.757812 60.261719 -104.457031 59.738281 -104.980469 C 59.214844 -105.679688 59.039062 -106.550781 58.339844 -107.074219 C 57.992188 -107.25 58.339844 -107.949219 58.691406 -107.949219 Z M 31.441406 -112.316406 C 30.394531 -112.316406 30.042969 -113.015625 30.394531 -114.0625 C 30.566406 -114.9375 31.441406 -114.9375 32.140625 -115.285156 C 32.664062 -115.460938 33.011719 -114.9375 33.363281 -114.585938 C 33.710938 -113.886719 33.1875 -112.664062 32.316406 -112.492188 C 31.964844 -112.316406 31.617188 -112.316406 31.441406 -112.316406 Z M 59.914062 -112.839844 C 58.867188 -112.140625 58.867188 -112.140625 57.992188 -112.664062 C 57.117188 -113.1875 56.421875 -113.886719 55.371094 -113.363281 C 55.023438 -113.1875 54.671875 -113.714844 54.847656 -114.0625 C 55.371094 -114.9375 56.070312 -115.285156 56.945312 -115.460938 C 57.292969 -115.460938 57.46875 -115.285156 57.46875 -115.109375 C 57.644531 -114.0625 58.339844 -113.714844 59.390625 -113.363281 C 59.5625 -113.363281 59.914062 -113.1875 59.914062 -112.839844 Z M 23.753906 -116.683594 C 23.40625 -116.683594 23.058594 -116.859375 22.707031 -117.03125 C 22.007812 -117.382812 21.660156 -118.082031 22.183594 -118.605469 L 23.40625 -120 C 23.753906 -120.175781 24.105469 -120.351562 24.453125 -120 C 24.804688 -119.652344 24.628906 -119.476562 24.453125 -119.128906 C 23.929688 -118.605469 23.929688 -118.082031 24.28125 -117.554688 C 24.628906 -117.03125 24.453125 -116.683594 23.753906 -116.683594 Z M 66.375 -55.894531 C 66.902344 -55.722656 67.425781 -56.070312 67.949219 -56.246094 C 68.648438 -56.421875 68.996094 -56.246094 68.820312 -55.546875 C 68.820312 -54.324219 68.296875 -53.972656 67.25 -54.148438 C 66.550781 -54.148438 66.027344 -54.324219 65.503906 -54.847656 C 65.152344 -55.023438 64.980469 -55.199219 64.980469 -55.371094 C 65.152344 -55.722656 65.503906 -55.894531 65.851562 -55.894531 C 66.027344 -56.070312 66.203125 -55.894531 66.375 -55.894531 Z M 42.269531 -122.445312 C 42.796875 -122.273438 42.796875 -121.921875 42.796875 -121.75 C 42.796875 -120.875 42.96875 -120.351562 44.019531 -120 C 44.890625 -119.828125 45.066406 -119.304688 44.890625 -118.605469 C 44.71875 -118.082031 44.191406 -117.90625 43.84375 -118.253906 C 43.492188 -118.605469 42.96875 -118.777344 42.445312 -118.953125 C 41.921875 -118.953125 41.746094 -119.304688 41.921875 -119.828125 C 42.269531 -120.527344 42.269531 -121.398438 42.269531 -122.445312 Z M 78.253906 -82.273438 C 78.253906 -81.574219 77.730469 -81.050781 77.207031 -80.875 C 76.855469 -80.875 75.808594 -81.746094 75.808594 -82.097656 C 75.808594 -82.445312 75.808594 -82.621094 76.160156 -82.796875 L 76.683594 -83.667969 C 77.207031 -84.367188 77.554688 -84.367188 78.078125 -83.667969 C 78.429688 -83.320312 78.253906 -82.796875 78.253906 -82.273438 Z M 63.058594 -53.277344 C 63.40625 -53.277344 63.582031 -53.101562 63.40625 -52.75 C 63.230469 -52.054688 63.582031 -51.703125 64.105469 -51.527344 C 64.804688 -51.355469 64.804688 -51.003906 64.453125 -50.480469 C 63.929688 -49.957031 63.230469 -49.78125 62.882812 -50.132812 L 61.835938 -51.527344 C 61.484375 -52.054688 62.535156 -53.277344 63.058594 -53.277344 Z M 63.757812 -86.464844 C 63.757812 -86.464844 63.757812 -86.113281 63.582031 -85.765625 C 63.582031 -85.417969 63.40625 -85.242188 63.058594 -85.066406 C 62.707031 -85.066406 62.359375 -85.066406 62.183594 -85.417969 C 61.484375 -86.113281 61.835938 -88.210938 62.535156 -88.558594 C 62.882812 -88.734375 63.058594 -88.734375 63.230469 -88.386719 C 63.582031 -87.863281 63.757812 -87.335938 63.757812 -86.464844 Z M 74.410156 -111.792969 C 74.0625 -111.964844 73.539062 -111.964844 73.710938 -112.492188 C 73.886719 -113.1875 73.886719 -113.714844 73.1875 -114.238281 C 73.015625 -114.414062 72.839844 -114.585938 72.839844 -114.761719 C 72.839844 -115.109375 72.839844 -115.460938 73.363281 -115.460938 L 74.238281 -115.460938 C 75.109375 -115.808594 75.109375 -115.808594 75.285156 -114.9375 C 75.285156 -114.414062 75.460938 -113.714844 74.761719 -113.363281 C 74.410156 -113.015625 74.585938 -112.316406 74.410156 -111.792969 Z M 67.425781 -98.867188 C 67.597656 -98.34375 67.25 -97.992188 67.074219 -97.46875 C 66.902344 -97.121094 66.902344 -96.59375 66.375 -96.59375 C 65.851562 -96.769531 65.503906 -97.121094 64.980469 -97.46875 C 64.804688 -97.46875 65.328125 -98.867188 65.679688 -99.039062 C 65.851562 -99.390625 66.203125 -99.566406 66.550781 -99.566406 C 67.25 -99.914062 67.425781 -99.738281 67.425781 -98.867188 Z M 73.710938 -96.59375 C 73.710938 -96.070312 73.1875 -95.546875 72.664062 -95.546875 C 72.140625 -95.546875 70.917969 -96.421875 70.742188 -96.945312 C 70.742188 -97.292969 71.964844 -98.167969 72.664062 -98.167969 C 73.015625 -98.167969 73.710938 -97.121094 73.710938 -96.59375 Z M 68.648438 -89.78125 C 69.347656 -89.609375 70.21875 -89.085938 71.09375 -88.558594 C 71.265625 -88.386719 71.265625 -88.035156 71.09375 -87.863281 C 70.917969 -87.6875 70.570312 -87.511719 70.394531 -87.511719 C 69.519531 -86.8125 69.347656 -86.8125 68.996094 -87.863281 C 68.996094 -88.386719 68.648438 -88.558594 68.125 -88.910156 C 67.949219 -88.910156 67.773438 -89.085938 67.773438 -89.433594 C 67.949219 -89.609375 68.125 -89.78125 68.648438 -89.78125 Z M 73.539062 -79.128906 C 73.1875 -79.128906 72.839844 -79.128906 72.664062 -79.476562 C 72.664062 -79.828125 72.839844 -80.175781 73.015625 -80.351562 C 73.886719 -81.222656 75.109375 -81.050781 75.984375 -80.175781 C 76.332031 -79.652344 76.160156 -79.300781 75.632812 -79.128906 Z M 72.664062 -33.1875 C 72.488281 -33.363281 72.316406 -33.363281 72.140625 -33.363281 C 71.964844 -33.539062 71.792969 -33.710938 71.792969 -33.886719 C 71.441406 -34.410156 70.917969 -35.109375 71.265625 -35.632812 C 71.617188 -36.15625 72.316406 -35.632812 72.839844 -35.632812 C 73.363281 -35.460938 73.710938 -35.460938 73.886719 -34.761719 C 73.886719 -34.0625 73.363281 -33.710938 72.839844 -33.363281 C 72.839844 -33.363281 72.664062 -33.363281 72.664062 -33.1875 Z M 39.476562 -17.816406 C 39.128906 -17.117188 38.777344 -16.417969 38.777344 -15.546875 C 38.777344 -14.847656 38.078125 -14.671875 37.378906 -14.847656 C 37.207031 -15.023438 37.03125 -15.023438 37.03125 -15.371094 C 36.855469 -16.246094 37.730469 -17.640625 38.601562 -17.992188 C 38.777344 -18.167969 39.128906 -18.167969 39.476562 -17.816406 Z M 69.171875 -94.675781 C 68.996094 -95.023438 68.820312 -95.546875 69.171875 -95.898438 C 69.519531 -96.246094 69.871094 -96.070312 70.21875 -95.898438 C 70.570312 -95.898438 70.742188 -95.722656 71.09375 -95.546875 C 71.792969 -95.023438 71.617188 -94.324219 70.917969 -93.800781 C 70.570312 -93.625 70.21875 -93.449219 69.871094 -93.449219 Z M 32.839844 -7.859375 C 32.488281 -8.035156 32.316406 -8.382812 32.839844 -8.734375 C 33.363281 -9.082031 33.710938 -9.605469 34.0625 -10.304688 C 34.0625 -10.480469 34.234375 -10.65625 34.585938 -10.65625 C 34.761719 -10.480469 35.109375 -10.304688 35.109375 -10.132812 L 34.761719 -8.210938 C 34.585938 -7.6875 34.0625 -7.6875 33.886719 -7.511719 Z M 63.582031 -113.363281 C 63.40625 -112.664062 62.707031 -112.316406 62.535156 -111.441406 C 62.359375 -111.09375 61.3125 -111.269531 61.136719 -111.792969 C 60.960938 -112.140625 60.613281 -112.664062 60.960938 -113.015625 C 61.136719 -113.363281 61.660156 -113.714844 62.183594 -113.714844 C 62.535156 -113.539062 63.058594 -113.714844 63.582031 -113.363281 Z M 63.40625 -99.039062 C 62.707031 -99.039062 62.359375 -99.214844 62.359375 -99.914062 C 62.359375 -100.4375 62.707031 -100.789062 63.230469 -100.613281 C 63.757812 -100.261719 64.28125 -100.261719 64.804688 -100.789062 C 64.980469 -100.960938 65.503906 -101.136719 65.679688 -100.613281 C 65.851562 -100.261719 65.851562 -99.914062 65.328125 -99.566406 C 64.804688 -99.214844 64.105469 -99.039062 63.40625 -99.039062 Z M 54.5 -75.632812 C 54.148438 -75.808594 53.800781 -75.632812 53.800781 -76.160156 C 53.625 -76.507812 53.800781 -76.855469 54.148438 -77.03125 C 55.023438 -77.207031 55.371094 -77.90625 56.070312 -78.253906 C 56.421875 -78.253906 56.59375 -78.429688 56.769531 -78.253906 C 56.945312 -78.078125 56.769531 -77.90625 56.769531 -77.554688 C 56.421875 -77.03125 56.070312 -76.507812 55.546875 -76.160156 C 55.199219 -75.808594 55.023438 -75.632812 54.5 -75.632812 Z M 71.441406 -23.929688 C 71.09375 -23.929688 70.917969 -23.929688 70.917969 -24.105469 C 70.742188 -24.28125 70.917969 -24.628906 71.09375 -24.628906 C 72.316406 -24.980469 72.140625 -26.027344 72.488281 -26.898438 C 72.488281 -27.074219 72.488281 -27.425781 72.664062 -27.597656 C 72.839844 -27.773438 73.015625 -27.949219 73.363281 -27.773438 C 73.710938 -27.773438 73.710938 -27.425781 73.710938 -27.25 C 73.539062 -26.203125 72.839844 -25.328125 72.488281 -24.453125 C 72.488281 -24.105469 71.792969 -23.929688 71.441406 -23.929688 Z M 58.339844 -20.785156 C 57.816406 -20.613281 57.46875 -20.4375 56.945312 -20.4375 C 56.421875 -20.261719 56.070312 -20.613281 56.421875 -21.136719 C 56.769531 -21.835938 56.945312 -22.53125 56.421875 -23.230469 C 56.246094 -23.40625 56.421875 -23.753906 56.59375 -23.753906 C 56.769531 -23.929688 56.945312 -23.929688 57.117188 -23.753906 C 57.292969 -23.40625 57.644531 -23.058594 57.644531 -22.882812 C 57.816406 -22.183594 57.992188 -21.484375 58.339844 -20.785156 Z M 56.421875 -22.53125 C 55.199219 -22.359375 54.671875 -21.835938 54.5 -20.785156 C 54.5 -20.613281 54.324219 -20.085938 53.800781 -20.261719 C 53.449219 -20.4375 53.277344 -20.785156 53.449219 -21.136719 L 53.449219 -21.484375 C 53.972656 -23.582031 53.972656 -23.582031 56.421875 -22.53125 Z M 53.800781 -11.355469 C 53.449219 -11.355469 53.101562 -11.355469 52.578125 -11.703125 C 52.578125 -11.703125 52.402344 -11.878906 52.402344 -12.050781 C 52.402344 -12.402344 52.578125 -12.402344 52.75 -12.578125 C 53.449219 -12.578125 54.324219 -12.578125 54.847656 -13.101562 C 55.023438 -13.273438 55.371094 -13.273438 55.546875 -13.101562 C 55.722656 -12.925781 55.722656 -12.578125 55.722656 -12.402344 C 55.546875 -11.703125 54.847656 -11.355469 53.800781 -11.355469 Z M 47.335938 -17.640625 C 46.636719 -17.640625 45.589844 -18.167969 45.414062 -18.515625 C 45.242188 -18.691406 45.242188 -19.039062 45.414062 -19.214844 C 45.589844 -19.390625 45.765625 -19.390625 46.113281 -19.214844 C 46.8125 -18.863281 47.511719 -18.691406 48.386719 -18.863281 C 48.558594 -18.863281 48.734375 -18.863281 48.910156 -18.691406 C 49.082031 -18.515625 49.257812 -18.339844 49.082031 -18.167969 C 49.082031 -17.992188 48.910156 -17.992188 48.910156 -17.992188 C 48.386719 -17.816406 47.6875 -17.816406 47.335938 -17.640625 Z M 72.316406 -39.476562 C 71.617188 -38.953125 71.09375 -39.128906 70.742188 -39.300781 C 70.21875 -39.652344 69.519531 -39.824219 69.171875 -40.351562 C 68.996094 -40.523438 68.996094 -40.875 69.347656 -41.046875 C 70.042969 -41.398438 70.917969 -41.046875 71.265625 -40.523438 C 71.441406 -40 71.792969 -39.824219 72.316406 -39.476562 Z M 43.320312 -123.144531 C 43.144531 -123.144531 42.96875 -123.320312 42.96875 -123.667969 C 42.96875 -124.542969 43.492188 -125.417969 44.019531 -125.417969 C 44.542969 -125.242188 45.066406 -124.71875 45.066406 -124.019531 C 45.242188 -123.496094 44.367188 -123.144531 43.320312 -123.144531 Z M 70.742188 -56.59375 C 70.742188 -57.117188 71.964844 -57.816406 72.488281 -57.644531 C 72.664062 -57.46875 72.839844 -57.292969 72.488281 -57.117188 C 71.964844 -56.59375 71.792969 -55.894531 71.617188 -55.199219 C 71.617188 -55.023438 71.441406 -54.847656 71.441406 -54.847656 C 71.265625 -54.671875 71.09375 -54.5 70.742188 -54.5 C 70.570312 -54.671875 70.570312 -54.847656 70.570312 -55.199219 C 70.742188 -55.371094 70.742188 -55.546875 70.742188 -55.894531 Z M 67.773438 -67.949219 C 68.820312 -68.296875 70.394531 -67.949219 71.09375 -67.25 C 71.265625 -67.074219 71.265625 -66.902344 71.265625 -66.550781 C 71.09375 -66.375 70.742188 -66.375 70.570312 -66.375 C 69.347656 -66.726562 69.347656 -66.726562 67.773438 -67.949219 Z M 75.808594 -37.207031 C 75.808594 -36.855469 75.632812 -36.332031 75.109375 -36.15625 C 74.761719 -35.984375 73.886719 -37.207031 73.886719 -37.730469 C 73.886719 -38.253906 74.238281 -38.601562 74.761719 -38.429688 C 75.632812 -38.429688 75.808594 -38.078125 75.808594 -37.207031 Z M 47.859375 -110.917969 C 47.335938 -110.046875 46.464844 -109.871094 45.941406 -109.171875 C 45.765625 -108.824219 45.414062 -108.824219 45.414062 -109.347656 C 45.242188 -109.871094 45.242188 -110.570312 45.765625 -110.917969 C 46.289062 -111.269531 46.8125 -111.617188 47.511719 -111.09375 C 47.511719 -111.09375 47.6875 -110.917969 47.859375 -110.917969 Z M 11.179688 -17.292969 C 11.527344 -17.117188 11.703125 -16.945312 11.703125 -16.59375 C 11.703125 -15.722656 11.878906 -15.023438 12.578125 -14.496094 C 12.75 -14.324219 12.75 -14.148438 12.75 -13.972656 C 12.578125 -13.625 12.226562 -13.625 12.050781 -13.800781 C 11.179688 -13.972656 10.480469 -16.417969 11.003906 -17.117188 C 11.003906 -17.117188 11.179688 -17.117188 11.179688 -17.292969 Z M 65.679688 -114.761719 C 66.203125 -114.585938 66.726562 -114.761719 66.726562 -114.0625 C 66.726562 -113.886719 66.550781 -113.539062 66.375 -113.539062 C 66.027344 -113.1875 65.503906 -112.839844 65.152344 -113.1875 C 64.980469 -113.363281 64.980469 -113.363281 64.804688 -113.363281 C 64.628906 -113.714844 64.105469 -113.714844 64.28125 -114.238281 C 64.453125 -114.761719 64.804688 -114.761719 65.328125 -114.761719 Z M 69.695312 -118.253906 C 69.695312 -117.730469 68.296875 -116.683594 67.597656 -116.859375 C 67.25 -117.03125 67.25 -117.382812 67.425781 -117.554688 L 68.296875 -118.777344 C 68.648438 -119.128906 68.996094 -118.777344 69.347656 -118.777344 C 69.695312 -118.777344 69.871094 -118.605469 69.695312 -118.253906 Z M 62.882812 -62.007812 C 63.058594 -61.484375 63.230469 -60.960938 62.535156 -60.613281 C 62.007812 -60.261719 61.3125 -60.613281 60.785156 -60.613281 C 60.613281 -60.613281 60.613281 -61.3125 60.960938 -61.484375 L 61.835938 -62.007812 C 62.183594 -62.007812 62.535156 -62.183594 62.882812 -62.007812 Z M 70.394531 -32.488281 C 70.21875 -32.316406 70.042969 -32.140625 69.695312 -32.140625 C 69.171875 -32.140625 68.820312 -32.488281 68.472656 -33.011719 C 68.296875 -33.1875 68.648438 -33.539062 68.820312 -33.710938 C 69.347656 -33.886719 69.871094 -34.0625 70.394531 -33.710938 C 70.742188 -33.363281 70.570312 -32.839844 70.394531 -32.488281 Z M 53.101562 -13.800781 C 52.578125 -13.800781 52.054688 -14.496094 52.054688 -15.195312 C 52.054688 -15.546875 52.226562 -15.894531 52.578125 -15.894531 C 52.925781 -15.894531 53.800781 -15.195312 53.972656 -14.671875 C 53.972656 -14.148438 53.449219 -13.800781 53.101562 -13.800781 Z M 54.148438 -108.824219 C 53.972656 -109.871094 54.324219 -110.742188 54.671875 -111.441406 C 54.847656 -111.617188 55.371094 -111.792969 55.722656 -111.441406 C 55.894531 -111.09375 56.070312 -110.742188 55.546875 -110.394531 C 55.023438 -110.21875 54.847656 -109.347656 54.148438 -108.824219 Z M 53.972656 -8.035156 C 52.402344 -7.6875 51.703125 -8.035156 51.179688 -8.910156 C 51.003906 -9.082031 50.832031 -9.257812 51.003906 -9.433594 C 51.179688 -9.78125 51.527344 -9.78125 51.703125 -9.605469 Z M 72.488281 -105.328125 C 72.488281 -104.980469 71.441406 -103.757812 71.09375 -103.757812 C 70.917969 -103.757812 70.742188 -103.929688 70.742188 -104.105469 L 71.265625 -106.027344 C 71.441406 -106.203125 71.792969 -106.203125 71.964844 -106.203125 C 72.316406 -106.027344 72.488281 -105.679688 72.488281 -105.328125 Z M 65.503906 -60.785156 C 65.851562 -60.785156 66.203125 -60.960938 66.726562 -60.960938 C 67.597656 -60.960938 67.773438 -60.785156 68.125 -59.738281 C 68.125 -59.5625 68.296875 -59.390625 67.949219 -59.214844 C 67.773438 -59.039062 67.425781 -59.039062 67.25 -59.214844 C 66.902344 -60.089844 66.027344 -60.261719 65.503906 -60.785156 Z M 32.316406 -123.144531 C 32.316406 -122.621094 32.140625 -122.273438 31.617188 -122.097656 C 31.265625 -121.921875 30.742188 -122.445312 30.742188 -122.972656 C 30.742188 -123.496094 31.09375 -124.195312 31.617188 -124.195312 C 31.964844 -124.195312 32.316406 -123.667969 32.316406 -123.144531 Z M 58.691406 -97.992188 C 59.039062 -97.992188 59.390625 -97.992188 59.738281 -98.167969 C 59.914062 -98.167969 60.261719 -98.34375 60.261719 -97.992188 C 60.4375 -97.644531 60.261719 -97.46875 60.089844 -97.46875 C 59.5625 -97.292969 59.039062 -97.121094 58.691406 -96.769531 C 58.515625 -96.59375 58.167969 -96.59375 57.992188 -96.769531 C 57.816406 -97.121094 57.816406 -97.46875 57.992188 -97.816406 C 57.992188 -98.167969 58.339844 -98.167969 58.515625 -97.992188 Z M 23.40625 -15.371094 C 23.058594 -15.371094 22.53125 -15.371094 22.53125 -15.894531 C 22.359375 -16.417969 22.882812 -16.769531 23.582031 -16.769531 C 23.929688 -16.769531 24.453125 -16.59375 24.453125 -16.246094 C 24.628906 -15.722656 24.105469 -15.371094 23.40625 -15.371094 Z M 61.3125 -107.601562 C 60.785156 -107.949219 60.613281 -108.472656 60.4375 -108.996094 C 60.261719 -109.347656 60.4375 -109.695312 60.785156 -109.871094 C 61.136719 -110.046875 61.3125 -109.871094 61.484375 -109.519531 C 62.007812 -108.996094 62.007812 -108.648438 61.3125 -107.601562 Z M 72.316406 -70.394531 C 71.617188 -70.042969 71.09375 -69.871094 70.570312 -69.871094 C 70.042969 -69.695312 69.871094 -69.871094 69.695312 -70.394531 C 69.695312 -70.917969 70.042969 -71.09375 70.394531 -71.09375 C 71.09375 -71.09375 71.617188 -70.742188 72.316406 -70.394531 Z M 43.84375 -4.714844 C 43.320312 -4.714844 42.96875 -5.589844 42.96875 -6.113281 C 42.96875 -6.636719 43.492188 -6.636719 43.84375 -6.636719 C 44.191406 -6.636719 44.542969 -6.464844 44.367188 -5.9375 C 44.367188 -5.589844 44.367188 -4.890625 43.84375 -4.714844 Z M 70.394531 -74.410156 C 69.695312 -74.585938 69.519531 -75.285156 69.171875 -75.632812 C 68.996094 -75.984375 69.171875 -76.160156 69.347656 -76.332031 C 69.695312 -76.683594 70.042969 -76.683594 70.21875 -76.332031 C 70.570312 -75.808594 70.917969 -75.109375 70.394531 -74.410156 Z M 38.953125 -114.238281 C 38.953125 -113.886719 38.777344 -113.886719 38.601562 -113.714844 C 38.429688 -113.714844 38.078125 -113.886719 38.078125 -113.886719 C 38.078125 -114.585938 37.554688 -115.109375 37.730469 -115.808594 C 37.730469 -115.984375 37.90625 -116.332031 38.253906 -116.332031 L 38.601562 -115.984375 C 38.777344 -115.285156 38.601562 -114.761719 38.953125 -114.238281 Z M 72.664062 -43.144531 C 72.664062 -42.96875 72.839844 -42.621094 72.488281 -42.445312 C 72.488281 -42.269531 72.316406 -42.097656 72.140625 -42.097656 C 71.617188 -42.445312 71.441406 -42.796875 71.441406 -43.320312 C 71.441406 -43.667969 71.441406 -44.019531 71.964844 -44.191406 C 72.488281 -44.367188 72.839844 -44.019531 72.664062 -43.144531 Z M 57.992188 -30.042969 C 56.59375 -29.171875 56.769531 -29.519531 56.070312 -30.394531 C 55.894531 -30.742188 55.894531 -30.917969 56.246094 -31.265625 C 56.59375 -31.441406 56.945312 -31.441406 56.945312 -31.09375 C 57.117188 -30.566406 57.644531 -30.394531 57.992188 -30.042969 Z M 24.980469 -122.796875 C 25.328125 -122.796875 26.027344 -122.273438 26.027344 -121.75 C 26.027344 -121.398438 26.027344 -121.050781 25.675781 -121.050781 C 25.152344 -120.875 24.453125 -121.574219 24.453125 -122.097656 C 24.453125 -122.445312 24.628906 -122.621094 24.980469 -122.796875 Z M 59.039062 -45.589844 C 59.390625 -46.113281 59.914062 -46.113281 60.261719 -46.289062 C 60.613281 -46.464844 60.960938 -46.113281 61.136719 -45.765625 C 61.136719 -45.242188 60.785156 -45.066406 60.4375 -45.066406 C 59.914062 -45.066406 59.5625 -45.242188 59.039062 -45.589844 Z M 70.917969 -20.261719 C 70.570312 -19.914062 70.21875 -19.5625 69.871094 -19.914062 C 69.347656 -20.085938 69.171875 -20.613281 68.996094 -21.136719 C 68.996094 -21.136719 69.171875 -21.308594 69.171875 -21.484375 C 69.347656 -21.484375 69.519531 -21.484375 69.695312 -21.308594 Z M 40.875 -11.179688 C 40.351562 -11.355469 40 -11.703125 39.824219 -12.226562 C 39.652344 -12.578125 39.824219 -12.925781 40.175781 -13.101562 C 40.699219 -13.273438 40.875 -12.925781 40.875 -12.578125 C 41.046875 -12.226562 41.222656 -11.703125 40.875 -11.179688 Z M 73.363281 -60.613281 C 73.886719 -60.613281 74.410156 -60.613281 74.410156 -59.914062 C 74.410156 -59.5625 74.238281 -59.390625 73.710938 -59.390625 C 73.1875 -59.390625 72.664062 -59.738281 72.664062 -60.089844 C 72.664062 -60.613281 73.015625 -60.613281 73.363281 -60.613281 Z M 60.960938 -64.628906 C 60.4375 -64.628906 60.089844 -64.804688 60.089844 -65.152344 C 60.089844 -65.679688 60.4375 -65.851562 60.960938 -65.851562 C 61.3125 -65.851562 61.835938 -65.851562 61.835938 -65.328125 C 61.835938 -64.804688 61.3125 -64.804688 60.960938 -64.628906 Z M 38.777344 -124.894531 C 38.953125 -124.71875 39.300781 -124.542969 39.128906 -124.195312 C 38.953125 -123.84375 39.128906 -123.144531 38.601562 -123.320312 C 38.253906 -123.320312 37.730469 -123.320312 37.730469 -123.84375 C 37.730469 -124.195312 38.429688 -124.894531 38.777344 -124.894531 Z M 63.929688 -91.179688 C 63.582031 -91.179688 63.40625 -91.355469 63.40625 -91.703125 C 63.40625 -92.226562 63.40625 -92.753906 64.105469 -92.753906 C 64.453125 -92.753906 64.628906 -92.402344 64.628906 -92.226562 C 64.804688 -91.703125 64.453125 -91.179688 63.929688 -91.179688 Z M 53.625 -123.84375 C 53.972656 -123.667969 54.324219 -123.496094 54.324219 -123.144531 C 54.324219 -122.796875 54.148438 -122.445312 53.800781 -122.445312 C 53.449219 -122.445312 52.925781 -122.621094 52.75 -122.972656 C 52.75 -123.496094 53.277344 -123.667969 53.625 -123.84375 Z M 57.292969 -123.496094 C 57.816406 -123.667969 58.339844 -123.144531 58.339844 -122.621094 C 58.339844 -122.273438 58.167969 -122.097656 57.992188 -122.097656 C 57.46875 -122.097656 56.945312 -122.621094 56.769531 -122.972656 C 56.769531 -123.320312 57.117188 -123.496094 57.292969 -123.496094 Z M 61.3125 -82.796875 C 62.007812 -82.445312 62.183594 -81.398438 61.660156 -81.050781 C 61.484375 -80.875 61.136719 -80.699219 60.960938 -80.875 C 60.613281 -81.050781 60.613281 -81.398438 60.785156 -81.574219 C 60.960938 -82.097656 61.3125 -82.445312 61.3125 -82.796875 Z M 41.574219 -14.847656 C 41.222656 -14.847656 41.222656 -15.023438 41.222656 -15.371094 C 41.222656 -15.894531 41.574219 -16.417969 42.097656 -16.246094 C 42.445312 -16.246094 42.621094 -16.070312 42.621094 -15.546875 C 42.621094 -15.195312 42.097656 -14.847656 41.574219 -14.847656 Z M 55.722656 -16.59375 C 55.722656 -16.417969 55.722656 -16.246094 55.546875 -15.894531 C 55.371094 -15.722656 55.199219 -15.546875 54.847656 -15.722656 C 54.671875 -15.722656 54.5 -16.070312 54.5 -16.246094 C 54.5 -16.769531 54.847656 -17.117188 55.199219 -17.292969 C 55.722656 -17.292969 55.722656 -16.945312 55.722656 -16.59375 Z M 11.179688 -23.929688 C 11.527344 -23.929688 11.527344 -23.40625 11.527344 -23.230469 C 11.703125 -22.707031 11.355469 -22.53125 10.828125 -22.359375 C 10.480469 -22.359375 10.304688 -22.53125 10.304688 -22.882812 C 10.132812 -23.230469 10.65625 -23.753906 11.179688 -23.929688 Z M 22.359375 -114.238281 C 22.007812 -114.238281 22.007812 -114.585938 22.007812 -114.9375 C 22.007812 -115.285156 22.183594 -115.808594 22.53125 -115.808594 C 23.058594 -115.808594 23.230469 -115.460938 23.230469 -115.109375 C 23.230469 -114.585938 22.882812 -114.238281 22.359375 -114.238281 Z M 71.617188 -81.746094 C 71.265625 -81.746094 71.09375 -81.921875 71.265625 -82.097656 C 71.265625 -82.621094 71.617188 -82.96875 72.140625 -83.144531 C 72.664062 -83.144531 72.664062 -82.96875 72.664062 -82.445312 C 72.664062 -82.097656 72.140625 -81.746094 71.617188 -81.746094 Z M 69.871094 -93.449219 C 70.042969 -92.925781 70.394531 -92.578125 70.21875 -92.054688 C 70.042969 -91.703125 69.871094 -91.53125 69.519531 -91.53125 C 69.347656 -91.703125 68.996094 -91.878906 69.171875 -92.226562 C 69.347656 -92.753906 69.347656 -93.277344 69.871094 -93.449219 Z M 46.636719 -11.003906 C 46.636719 -11.878906 47.164062 -12.050781 47.335938 -12.578125 C 47.511719 -12.75 47.859375 -12.75 48.035156 -12.578125 C 48.386719 -12.226562 48.386719 -11.878906 48.035156 -11.703125 Z M 62.882812 -22.007812 C 62.535156 -21.660156 62.007812 -21.484375 61.484375 -21.484375 C 61.3125 -21.484375 60.960938 -21.484375 61.136719 -21.835938 C 61.136719 -22.359375 61.3125 -22.53125 61.835938 -22.53125 C 62.359375 -22.53125 62.707031 -22.53125 62.882812 -22.007812 Z M 54.671875 -117.554688 C 54.671875 -117.382812 54.671875 -117.03125 54.148438 -117.03125 C 53.800781 -116.859375 53.277344 -117.382812 53.449219 -117.90625 C 53.449219 -118.253906 53.800781 -118.429688 54.148438 -118.429688 C 54.5 -118.253906 54.671875 -117.90625 54.671875 -117.554688 Z M 60.4375 -75.460938 C 60.261719 -75.632812 60.089844 -75.808594 60.261719 -76.160156 C 60.4375 -76.332031 60.613281 -76.332031 60.785156 -76.160156 C 61.660156 -75.984375 61.835938 -75.285156 61.660156 -74.585938 Z M 43.667969 -21.136719 C 43.667969 -20.785156 43.320312 -20.785156 43.144531 -20.613281 C 42.621094 -20.613281 42.269531 -20.785156 42.269531 -21.308594 C 42.269531 -21.660156 42.445312 -21.835938 42.796875 -21.835938 C 43.320312 -22.007812 43.492188 -21.660156 43.667969 -21.136719 Z M 77.554688 -76.160156 C 77.03125 -76.160156 76.683594 -76.507812 76.683594 -77.03125 C 76.683594 -77.207031 76.855469 -77.382812 77.03125 -77.554688 C 77.382812 -77.554688 78.253906 -76.855469 78.078125 -76.507812 C 78.078125 -76.332031 77.730469 -76.160156 77.554688 -76.160156 Z M 60.613281 -72.839844 C 60.261719 -72.664062 60.089844 -72.664062 60.089844 -73.015625 C 60.089844 -73.1875 60.089844 -73.363281 60.261719 -73.363281 C 60.613281 -73.710938 61.136719 -73.886719 61.660156 -73.710938 C 61.835938 -73.710938 61.835938 -73.363281 61.835938 -73.1875 C 61.484375 -72.664062 60.960938 -73.015625 60.613281 -72.839844 Z M 58.167969 -17.292969 C 58.339844 -17.292969 58.515625 -17.117188 58.691406 -16.945312 C 58.867188 -16.59375 59.214844 -16.417969 58.867188 -16.070312 C 58.691406 -15.894531 58.339844 -15.722656 58.167969 -15.894531 C 57.816406 -16.070312 57.46875 -16.246094 57.816406 -16.769531 C 57.816406 -16.945312 57.816406 -17.117188 58.167969 -17.292969 Z M 62.359375 -41.574219 C 61.835938 -41.574219 61.484375 -41.921875 61.484375 -42.269531 C 61.484375 -42.621094 61.660156 -42.796875 62.007812 -42.796875 C 62.359375 -42.796875 62.882812 -42.445312 62.882812 -41.921875 C 62.707031 -41.574219 62.535156 -41.574219 62.359375 -41.574219 Z M 22.359375 -4.191406 C 22.53125 -3.84375 22.359375 -3.667969 22.007812 -3.667969 C 21.660156 -3.667969 21.484375 -3.84375 21.484375 -4.191406 C 21.484375 -4.367188 21.484375 -4.542969 21.660156 -4.714844 C 21.660156 -5.066406 21.136719 -5.414062 21.835938 -5.414062 C 22.183594 -5.589844 22.183594 -5.066406 22.359375 -4.714844 Z M 65.851562 -116.683594 C 65.851562 -116.332031 65.851562 -115.808594 65.328125 -115.808594 C 64.980469 -115.808594 64.628906 -116.160156 64.628906 -116.507812 C 64.453125 -116.859375 64.804688 -117.03125 65.152344 -117.03125 C 65.503906 -117.03125 65.851562 -117.03125 65.851562 -116.683594 Z M 64.980469 -24.28125 C 65.328125 -24.105469 65.851562 -24.28125 65.851562 -23.753906 C 66.027344 -23.40625 65.851562 -23.058594 65.503906 -22.882812 C 65.152344 -22.882812 64.628906 -23.582031 64.628906 -23.929688 C 64.628906 -24.105469 64.628906 -24.28125 64.980469 -24.28125 Z M 67.773438 -79.300781 C 67.773438 -78.953125 67.597656 -78.605469 67.25 -78.605469 C 66.902344 -78.777344 66.726562 -79.128906 66.550781 -79.652344 C 66.550781 -79.828125 66.726562 -80 67.074219 -80 C 67.597656 -80 67.773438 -79.652344 67.773438 -79.300781 Z M 75.984375 -44.542969 C 76.332031 -44.542969 76.855469 -44.019531 76.855469 -43.492188 C 76.855469 -43.320312 76.683594 -43.144531 76.507812 -43.144531 C 76.160156 -43.144531 75.632812 -43.320312 75.632812 -43.84375 C 75.632812 -44.191406 75.808594 -44.367188 75.984375 -44.542969 Z M 73.539062 -54.324219 C 73.1875 -54.324219 73.1875 -54.671875 73.1875 -54.847656 C 73.1875 -55.371094 73.539062 -55.546875 73.886719 -55.722656 C 74.238281 -55.722656 74.410156 -55.546875 74.410156 -55.199219 C 74.410156 -54.847656 73.886719 -54.324219 73.539062 -54.324219 Z M 53.625 -104.804688 C 54.148438 -104.804688 54.324219 -104.457031 54.5 -104.105469 C 54.5 -103.757812 54.324219 -103.582031 53.972656 -103.582031 C 53.625 -103.582031 53.277344 -103.757812 53.101562 -104.105469 C 53.101562 -104.457031 53.449219 -104.628906 53.625 -104.804688 Z M 73.710938 -98.515625 C 73.710938 -98.867188 73.886719 -99.214844 74.238281 -99.039062 C 74.585938 -99.039062 74.761719 -98.691406 74.761719 -98.34375 C 74.761719 -97.992188 74.761719 -97.644531 74.410156 -97.644531 C 73.886719 -97.644531 73.886719 -98.167969 73.710938 -98.515625 Z M 57.46875 -33.539062 C 57.292969 -33.363281 57.292969 -33.011719 56.945312 -33.011719 C 56.59375 -33.1875 56.070312 -33.1875 56.246094 -33.886719 C 56.246094 -34.0625 56.246094 -34.410156 56.59375 -34.234375 C 56.945312 -34.234375 57.46875 -34.0625 57.46875 -33.539062 Z M 60.089844 -7.859375 C 59.914062 -7.335938 59.5625 -7.511719 59.214844 -7.511719 C 58.867188 -7.511719 58.515625 -7.511719 58.691406 -8.035156 C 58.691406 -8.382812 58.867188 -8.558594 59.214844 -8.558594 C 59.390625 -8.558594 60.089844 -8.035156 60.089844 -7.859375 Z M 57.816406 -98.515625 C 57.46875 -98.515625 57.292969 -98.691406 57.292969 -99.039062 C 57.117188 -99.390625 57.292969 -99.738281 57.644531 -99.738281 C 57.992188 -99.914062 58.339844 -99.566406 58.339844 -99.390625 C 58.339844 -99.039062 58.167969 -98.691406 57.816406 -98.515625 Z M 75.984375 -56.421875 C 76.332031 -56.421875 76.683594 -56.421875 76.855469 -56.070312 C 76.855469 -55.546875 76.507812 -55.546875 76.160156 -55.546875 C 75.808594 -55.546875 75.460938 -55.371094 75.460938 -55.894531 C 75.285156 -56.421875 75.632812 -56.421875 75.984375 -56.421875 Z M 73.363281 -104.980469 C 74.585938 -105.15625 74.761719 -105.15625 74.761719 -104.28125 C 74.585938 -103.929688 74.238281 -103.757812 74.0625 -104.105469 C 73.886719 -104.457031 73.363281 -104.457031 73.363281 -104.980469 Z M 58.167969 -46.988281 C 57.816406 -46.988281 57.644531 -47.164062 57.644531 -47.511719 C 57.644531 -48.035156 57.992188 -48.035156 58.339844 -48.035156 C 58.691406 -48.035156 59.039062 -48.035156 58.867188 -47.6875 C 58.867188 -47.335938 58.515625 -46.988281 58.167969 -46.988281 Z M 68.472656 -125.417969 C 68.472656 -125.066406 68.472656 -124.894531 68.125 -124.894531 C 67.773438 -124.894531 67.425781 -125.066406 67.425781 -125.417969 C 67.425781 -125.765625 67.597656 -126.117188 67.949219 -126.117188 C 68.472656 -126.117188 68.472656 -125.765625 68.472656 -125.417969 Z M 59.738281 -62.535156 C 60.261719 -62.535156 60.4375 -62.359375 60.4375 -62.007812 C 60.4375 -61.660156 60.261719 -61.484375 59.914062 -61.484375 C 59.5625 -61.3125 59.214844 -61.660156 59.214844 -62.007812 C 59.039062 -62.359375 59.5625 -62.359375 59.738281 -62.535156 Z M 71.617188 -118.777344 C 71.964844 -119.128906 72.316406 -119.128906 72.664062 -119.128906 C 73.015625 -119.128906 73.363281 -118.777344 73.1875 -118.429688 C 73.015625 -117.90625 72.664062 -118.253906 72.488281 -118.429688 C 72.140625 -118.429688 71.792969 -118.429688 71.617188 -118.777344 Z M 15.023438 -17.292969 C 15.546875 -17.292969 15.546875 -17.117188 15.546875 -16.769531 C 15.546875 -16.417969 15.722656 -16.070312 15.195312 -15.894531 C 14.847656 -15.894531 14.671875 -16.070312 14.671875 -16.417969 C 14.671875 -16.769531 14.671875 -17.117188 15.023438 -17.292969 Z M 55.199219 -64.628906 C 55.199219 -64.28125 54.847656 -64.105469 54.5 -64.105469 C 54.324219 -64.105469 53.972656 -64.28125 53.972656 -64.453125 C 53.972656 -64.980469 54.324219 -65.152344 54.671875 -65.152344 C 55.023438 -65.152344 55.199219 -64.980469 55.199219 -64.628906 Z M 63.582031 -74.9375 C 63.230469 -75.109375 62.882812 -74.9375 62.882812 -75.460938 C 63.058594 -75.632812 63.058594 -76.160156 63.40625 -75.984375 C 63.929688 -75.984375 64.105469 -75.808594 64.105469 -75.285156 C 64.105469 -74.9375 63.757812 -75.109375 63.582031 -74.9375 Z M 60.613281 -124.71875 C 60.4375 -124.894531 60.613281 -125.066406 60.613281 -125.417969 C 60.785156 -125.765625 61.136719 -125.765625 61.484375 -125.765625 C 61.484375 -125.589844 61.660156 -125.589844 61.660156 -125.417969 C 61.660156 -125.066406 61.484375 -124.894531 61.136719 -124.71875 C 60.960938 -124.71875 60.785156 -124.542969 60.613281 -124.71875 Z M 25.675781 -114.414062 C 25.675781 -114.0625 25.328125 -113.886719 24.980469 -113.714844 C 24.804688 -113.714844 24.628906 -113.714844 24.628906 -114.0625 C 24.628906 -114.414062 24.804688 -114.761719 25.328125 -114.9375 C 25.503906 -114.9375 25.675781 -114.761719 25.675781 -114.414062 Z M 77.03125 -37.90625 C 76.683594 -38.253906 76.683594 -38.601562 76.683594 -38.953125 C 76.683594 -39.300781 76.855469 -39.652344 77.207031 -39.476562 C 77.730469 -39.476562 77.554688 -38.953125 77.382812 -38.777344 Z M 58.691406 -26.898438 C 58.515625 -26.550781 58.339844 -26.203125 57.992188 -26.375 C 57.644531 -26.375 57.46875 -26.726562 57.644531 -27.074219 C 57.644531 -27.25 57.816406 -27.425781 58.167969 -27.425781 C 58.515625 -27.425781 58.515625 -27.074219 58.691406 -26.898438 Z M 72.140625 -58.339844 C 71.792969 -58.339844 71.617188 -58.691406 71.617188 -59.039062 C 71.617188 -59.214844 71.792969 -59.390625 72.140625 -59.390625 C 72.488281 -59.390625 72.664062 -59.039062 72.664062 -58.691406 C 72.664062 -58.515625 72.488281 -58.339844 72.140625 -58.339844 Z M 57.117188 -35.808594 C 57.117188 -35.460938 57.117188 -35.109375 56.769531 -35.109375 C 56.421875 -35.109375 56.246094 -35.285156 56.246094 -35.632812 C 56.246094 -35.984375 56.421875 -36.332031 56.769531 -36.332031 C 57.117188 -36.332031 57.117188 -35.984375 57.117188 -35.808594 Z M 61.3125 -12.402344 C 60.960938 -12.402344 60.785156 -12.578125 60.785156 -13.101562 C 60.785156 -13.273438 61.136719 -13.449219 61.3125 -13.449219 C 61.660156 -13.449219 61.835938 -13.101562 61.835938 -12.75 C 61.835938 -12.578125 61.660156 -12.402344 61.3125 -12.402344 Z M 56.246094 -69.347656 C 56.246094 -68.996094 56.070312 -68.820312 55.894531 -68.820312 C 55.546875 -68.820312 55.199219 -68.820312 55.023438 -69.171875 C 54.847656 -69.519531 55.199219 -69.519531 55.371094 -69.695312 C 55.722656 -69.695312 56.070312 -69.695312 56.246094 -69.347656 Z M 30.21875 -118.429688 C 30.394531 -118.429688 30.742188 -118.429688 30.742188 -118.082031 C 30.742188 -117.730469 30.394531 -117.554688 30.21875 -117.554688 C 29.871094 -117.554688 29.519531 -117.730469 29.519531 -118.082031 C 29.519531 -118.429688 29.871094 -118.429688 30.21875 -118.429688 Z M 21.484375 -8.558594 C 21.484375 -8.210938 21.308594 -8.035156 20.960938 -8.035156 C 20.613281 -8.035156 20.4375 -8.210938 20.4375 -8.382812 C 20.4375 -8.734375 20.613281 -8.910156 20.960938 -9.082031 C 21.308594 -9.082031 21.484375 -8.910156 21.484375 -8.558594 Z M 33.710938 -16.59375 C 33.539062 -17.117188 33.886719 -17.292969 33.886719 -17.640625 C 33.886719 -17.816406 34.0625 -17.992188 34.234375 -17.992188 C 34.585938 -17.816406 34.761719 -17.640625 34.585938 -17.292969 C 34.410156 -16.945312 34.234375 -16.769531 33.710938 -16.59375 Z M 47.511719 -116.160156 C 47.164062 -116.160156 46.8125 -116.332031 46.8125 -116.859375 C 46.8125 -117.03125 46.8125 -117.207031 47.164062 -117.207031 C 47.6875 -117.382812 47.6875 -116.859375 47.859375 -116.507812 C 47.859375 -116.332031 47.6875 -116.160156 47.511719 -116.160156 Z M 63.929688 -34.585938 C 63.929688 -34.234375 63.757812 -34.0625 63.40625 -34.0625 C 63.230469 -34.0625 62.882812 -34.234375 62.882812 -34.410156 C 62.882812 -34.761719 63.058594 -34.933594 63.230469 -35.109375 C 63.582031 -35.109375 63.757812 -34.933594 63.929688 -34.585938 Z M 26.898438 -115.460938 C 26.726562 -115.109375 26.375 -115.109375 26.027344 -115.109375 C 25.851562 -115.109375 25.675781 -115.285156 25.675781 -115.460938 C 25.851562 -115.808594 26.203125 -115.984375 26.550781 -115.984375 C 26.726562 -115.808594 26.898438 -115.808594 26.898438 -115.460938 Z M 7.6875 -22.007812 C 7.335938 -22.007812 7.335938 -22.359375 7.335938 -22.53125 C 7.335938 -22.707031 6.988281 -23.058594 7.335938 -23.230469 C 7.859375 -23.40625 7.859375 -23.058594 8.035156 -22.707031 C 8.035156 -22.359375 7.859375 -22.183594 7.6875 -22.007812 Z M 18.515625 -16.945312 C 18.339844 -16.59375 18.691406 -15.894531 17.992188 -15.894531 C 17.816406 -15.894531 17.640625 -16.070312 17.640625 -16.070312 C 17.640625 -16.59375 17.816406 -17.117188 18.515625 -17.117188 Z M 69.695312 -78.605469 C 69.171875 -78.605469 68.996094 -78.777344 68.996094 -79.128906 C 68.996094 -79.300781 69.171875 -79.652344 69.347656 -79.652344 C 69.695312 -79.652344 69.871094 -79.476562 69.871094 -79.128906 C 69.871094 -78.953125 69.871094 -78.605469 69.695312 -78.605469 Z M 52.402344 -117.03125 C 52.226562 -116.683594 52.054688 -116.507812 51.703125 -116.507812 C 51.527344 -116.507812 51.355469 -116.683594 51.355469 -116.859375 C 51.355469 -117.382812 51.703125 -117.382812 52.054688 -117.382812 C 52.226562 -117.382812 52.402344 -117.207031 52.402344 -117.03125 Z M 72.839844 -108.296875 C 72.140625 -108.125 71.964844 -107.773438 71.617188 -107.949219 C 71.441406 -108.125 71.441406 -108.472656 71.617188 -108.648438 C 71.964844 -108.996094 72.316406 -108.472656 72.839844 -108.296875 Z M 61.484375 -44.71875 C 61.660156 -44.890625 61.660156 -45.242188 62.007812 -45.242188 C 62.183594 -45.242188 62.359375 -45.066406 62.535156 -44.71875 C 62.535156 -44.367188 62.183594 -44.367188 62.007812 -44.367188 C 61.835938 -44.367188 61.484375 -44.367188 61.484375 -44.71875 Z M 19.5625 -7.511719 C 19.214844 -7.511719 19.039062 -7.511719 19.039062 -7.859375 C 19.039062 -8.210938 19.390625 -8.210938 19.5625 -8.210938 C 19.914062 -8.382812 20.085938 -8.210938 20.085938 -7.859375 C 20.085938 -7.511719 19.738281 -7.511719 19.5625 -7.511719 Z M 66.375 -87.863281 C 66.203125 -87.511719 66.027344 -87.335938 65.851562 -87.335938 C 65.679688 -87.335938 65.328125 -87.511719 65.328125 -87.6875 C 65.328125 -88.035156 65.503906 -88.035156 65.851562 -88.210938 C 66.027344 -88.210938 66.203125 -88.035156 66.375 -87.863281 Z M 76.332031 -88.734375 C 76.332031 -88.386719 75.984375 -88.210938 75.632812 -88.386719 C 75.460938 -88.386719 75.285156 -88.558594 75.285156 -88.734375 C 75.460938 -89.085938 75.808594 -89.085938 75.984375 -89.085938 C 76.332031 -89.085938 76.332031 -88.910156 76.332031 -88.734375 Z M 64.804688 -111.441406 C 64.980469 -111.441406 65.328125 -111.269531 65.152344 -111.09375 C 65.152344 -110.742188 64.980469 -110.570312 64.628906 -110.570312 C 64.453125 -110.742188 64.28125 -110.917969 64.28125 -111.09375 C 64.28125 -111.441406 64.628906 -111.441406 64.804688 -111.441406 Z M 75.285156 -120 C 75.632812 -120.175781 75.808594 -119.828125 75.808594 -119.652344 C 75.808594 -119.304688 75.808594 -119.128906 75.460938 -119.128906 C 75.285156 -119.128906 75.109375 -119.304688 74.9375 -119.652344 C 74.9375 -119.828125 75.109375 -120 75.285156 -120 Z M 59.214844 -116.683594 C 59.390625 -116.683594 59.5625 -116.507812 59.5625 -116.332031 C 59.5625 -115.984375 59.390625 -115.808594 59.039062 -115.808594 C 58.867188 -115.808594 58.691406 -115.984375 58.691406 -116.160156 C 58.691406 -116.507812 58.867188 -116.683594 59.214844 -116.683594 Z M 71.964844 -101.136719 C 71.964844 -100.960938 71.792969 -100.789062 71.441406 -100.789062 C 71.265625 -100.960938 71.09375 -101.136719 71.09375 -101.3125 C 71.265625 -101.484375 71.265625 -101.660156 71.617188 -101.660156 C 71.792969 -101.660156 71.964844 -101.484375 71.964844 -101.136719 Z M 78.253906 -110.21875 C 78.253906 -110.046875 78.078125 -109.871094 77.90625 -110.046875 C 77.554688 -110.046875 77.207031 -110.21875 77.382812 -110.570312 C 77.382812 -110.742188 77.554688 -110.742188 77.90625 -110.742188 C 78.078125 -110.742188 78.253906 -110.570312 78.253906 -110.21875 Z M 29.871094 -14.847656 C 30.21875 -14.671875 30.21875 -14.496094 30.21875 -14.148438 C 30.21875 -13.972656 30.042969 -13.800781 29.871094 -13.800781 C 29.34375 -13.800781 29.519531 -14.148438 29.519531 -14.324219 Z M 55.371094 -100.261719 C 55.199219 -100.261719 55.023438 -100.4375 55.023438 -100.613281 C 54.847656 -100.960938 55.199219 -100.960938 55.371094 -100.960938 C 55.546875 -100.960938 55.894531 -100.960938 55.894531 -100.613281 C 55.894531 -100.4375 55.722656 -100.261719 55.371094 -100.261719 Z M 56.246094 -18.339844 C 56.246094 -17.992188 56.421875 -17.816406 56.070312 -17.816406 C 55.722656 -17.816406 55.546875 -17.992188 55.546875 -18.167969 C 55.546875 -18.515625 55.722656 -18.691406 56.070312 -18.691406 C 56.246094 -18.691406 56.246094 -18.515625 56.246094 -18.339844 Z M 70.394531 -32.488281 C 70.742188 -32.316406 70.917969 -32.316406 70.917969 -31.964844 C 71.09375 -31.789062 71.09375 -31.441406 70.742188 -31.441406 C 70.394531 -31.265625 70.394531 -31.617188 70.394531 -31.964844 Z M 50.304688 -105.328125 C 50.480469 -105.15625 50.832031 -104.980469 50.65625 -104.628906 C 50.65625 -104.457031 50.480469 -104.457031 50.304688 -104.457031 C 50.132812 -104.628906 49.78125 -104.804688 49.957031 -105.15625 C 49.957031 -105.328125 50.132812 -105.328125 50.304688 -105.328125 Z M 49.257812 -9.257812 C 49.257812 -8.910156 49.082031 -8.910156 48.734375 -8.910156 C 48.558594 -9.082031 48.558594 -9.082031 48.558594 -9.433594 C 48.558594 -9.605469 48.734375 -9.78125 49.082031 -9.605469 C 49.257812 -9.605469 49.433594 -9.433594 49.257812 -9.257812 Z M 76.332031 -111.09375 C 75.984375 -110.917969 75.808594 -110.394531 75.460938 -110.742188 C 75.285156 -110.917969 75.285156 -111.09375 75.460938 -111.09375 C 75.632812 -111.617188 75.984375 -111.441406 76.332031 -111.09375 Z M 74.761719 -63.230469 C 74.761719 -63.058594 74.585938 -62.882812 74.238281 -62.882812 C 74.0625 -62.882812 74.0625 -63.058594 74.0625 -63.230469 C 74.0625 -63.582031 74.0625 -63.757812 74.410156 -63.582031 C 74.585938 -63.582031 74.761719 -63.582031 74.761719 -63.230469 Z M 24.28125 -23.582031 C 24.28125 -23.40625 24.105469 -23.230469 23.929688 -23.230469 C 23.753906 -23.230469 23.582031 -23.230469 23.582031 -23.40625 C 23.40625 -23.753906 23.582031 -23.929688 23.753906 -23.929688 C 24.105469 -23.929688 24.105469 -23.929688 24.28125 -23.582031 Z M 54.5 -34.761719 C 54.671875 -34.761719 54.847656 -34.761719 54.847656 -34.410156 C 54.671875 -34.234375 54.671875 -34.0625 54.324219 -34.0625 C 54.324219 -34.0625 54.148438 -34.234375 54.148438 -34.410156 C 53.972656 -34.585938 54.148438 -34.761719 54.5 -34.761719 Z M 60.960938 -82.796875 C 60.613281 -82.621094 60.4375 -82.796875 60.4375 -82.96875 L 60.4375 -83.320312 C 60.785156 -83.496094 60.960938 -83.320312 61.136719 -83.144531 C 61.136719 -83.144531 61.136719 -82.96875 61.3125 -82.796875 Z M 29.519531 -116.683594 C 29.519531 -116.507812 29.519531 -116.332031 29.171875 -116.332031 C 28.996094 -116.332031 28.996094 -116.507812 28.996094 -116.683594 C 28.996094 -116.859375 28.996094 -117.03125 29.171875 -117.207031 C 29.519531 -117.207031 29.519531 -117.03125 29.519531 -116.683594 Z M 19.738281 -114.585938 C 19.738281 -114.238281 19.5625 -114.0625 19.390625 -114.0625 C 19.214844 -114.0625 19.039062 -114.0625 19.039062 -114.238281 C 19.039062 -114.585938 19.214844 -114.761719 19.390625 -114.761719 C 19.5625 -114.761719 19.738281 -114.585938 19.738281 -114.585938 Z M 48.558594 -15.195312 C 48.734375 -15.195312 49.082031 -15.195312 49.082031 -14.847656 C 49.082031 -14.671875 48.910156 -14.496094 48.734375 -14.671875 C 48.558594 -14.671875 48.386719 -14.671875 48.210938 -14.847656 C 48.210938 -15.195312 48.386719 -15.195312 48.558594 -15.195312 Z M 78.078125 -89.433594 C 78.253906 -89.433594 78.429688 -89.433594 78.429688 -89.257812 C 78.429688 -88.910156 78.253906 -88.910156 78.078125 -88.910156 C 77.90625 -88.910156 77.554688 -88.910156 77.554688 -89.257812 C 77.554688 -89.433594 77.730469 -89.433594 78.078125 -89.433594 Z M 60.785156 -14.496094 C 60.960938 -14.496094 61.136719 -14.324219 61.136719 -14.148438 C 61.136719 -13.972656 60.960938 -13.800781 60.785156 -13.800781 C 60.4375 -13.800781 60.4375 -13.972656 60.4375 -14.324219 C 60.4375 -14.496094 60.613281 -14.496094 60.785156 -14.496094 Z M 75.984375 -46.289062 C 75.632812 -46.289062 75.632812 -46.464844 75.632812 -46.636719 C 75.632812 -46.8125 75.632812 -47.164062 75.808594 -47.164062 C 75.984375 -47.164062 76.160156 -46.988281 76.160156 -46.8125 C 76.160156 -46.636719 76.160156 -46.464844 75.984375 -46.289062 Z M 55.199219 -27.773438 C 55.371094 -27.773438 55.546875 -27.597656 55.546875 -27.425781 C 55.546875 -27.074219 55.371094 -27.074219 55.199219 -27.074219 C 55.023438 -27.074219 54.847656 -27.25 54.847656 -27.425781 C 54.847656 -27.597656 55.023438 -27.773438 55.199219 -27.773438 Z M 63.230469 -96.769531 C 63.40625 -96.769531 63.40625 -96.945312 63.582031 -96.945312 C 63.757812 -96.945312 63.929688 -96.769531 63.929688 -96.59375 C 63.929688 -96.421875 63.757812 -96.246094 63.582031 -96.246094 C 63.40625 -96.246094 63.230469 -96.421875 63.230469 -96.769531 Z M 22.707031 -122.621094 C 22.359375 -122.621094 22.359375 -122.796875 22.359375 -122.972656 C 22.359375 -123.144531 22.53125 -123.496094 22.707031 -123.320312 C 22.882812 -123.320312 22.882812 -122.972656 22.882812 -122.796875 C 22.882812 -122.796875 22.882812 -122.621094 22.707031 -122.621094 Z M 3.492188 -23.40625 C 3.84375 -23.40625 3.84375 -23.230469 3.667969 -22.882812 C 3.667969 -22.707031 3.492188 -22.53125 3.320312 -22.707031 C 3.144531 -22.882812 3.144531 -23.058594 3.320312 -23.230469 C 3.320312 -23.40625 3.320312 -23.582031 3.492188 -23.40625 Z M 44.367188 -14.671875 C 44.191406 -14.496094 44.191406 -14.324219 44.019531 -14.324219 C 43.667969 -14.324219 43.667969 -14.496094 43.667969 -14.671875 C 43.667969 -14.847656 43.84375 -15.023438 44.191406 -14.847656 C 44.191406 -14.847656 44.367188 -14.847656 44.367188 -14.671875 Z M 34.585938 -121.921875 C 34.585938 -121.75 34.410156 -121.574219 34.234375 -121.574219 C 34.0625 -121.398438 33.886719 -121.574219 33.886719 -121.75 C 33.886719 -122.097656 34.0625 -122.097656 34.234375 -122.097656 C 34.410156 -122.097656 34.585938 -122.097656 34.585938 -121.921875 Z M 68.296875 -27.949219 C 68.296875 -27.773438 68.296875 -27.773438 68.125 -27.773438 C 67.949219 -27.597656 67.597656 -27.597656 67.597656 -27.949219 C 67.425781 -28.121094 67.597656 -28.121094 67.773438 -28.121094 C 67.949219 -28.296875 68.125 -28.296875 68.296875 -27.949219 Z M 55.722656 -71.617188 C 55.546875 -71.617188 55.371094 -71.617188 55.371094 -71.792969 C 55.371094 -71.964844 55.546875 -71.964844 55.722656 -72.140625 C 55.894531 -72.140625 56.070312 -72.140625 56.070312 -71.792969 C 56.070312 -71.617188 55.894531 -71.617188 55.722656 -71.617188 Z M 73.539062 -66.203125 C 73.1875 -66.027344 73.015625 -66.375 73.015625 -66.550781 C 73.015625 -66.550781 73.015625 -66.726562 73.1875 -66.726562 C 73.363281 -66.726562 73.539062 -66.550781 73.710938 -66.375 Z M 55.199219 -60.4375 C 55.199219 -60.261719 55.199219 -59.914062 55.023438 -59.914062 C 54.847656 -59.914062 54.847656 -60.089844 54.847656 -60.261719 C 54.671875 -60.4375 54.847656 -60.613281 54.847656 -60.613281 C 55.199219 -60.785156 55.199219 -60.613281 55.199219 -60.4375 Z M 54.847656 -9.082031 C 55.023438 -9.082031 55.199219 -8.910156 55.199219 -8.734375 C 55.199219 -8.558594 55.023438 -8.558594 54.847656 -8.558594 C 54.671875 -8.558594 54.5 -8.734375 54.5 -8.910156 C 54.671875 -8.910156 54.671875 -9.082031 54.847656 -9.082031 Z M 9.082031 -15.371094 C 9.082031 -15.195312 9.082031 -15.195312 8.910156 -15.195312 C 8.734375 -15.195312 8.558594 -15.195312 8.558594 -15.546875 C 8.734375 -15.722656 8.910156 -15.722656 8.910156 -15.722656 C 9.082031 -15.546875 9.257812 -15.546875 9.082031 -15.371094 Z M 36.332031 -3.144531 C 36.15625 -3.144531 36.15625 -2.96875 35.984375 -2.96875 C 35.808594 -2.96875 35.632812 -2.96875 35.460938 -3.144531 L 35.632812 -3.320312 L 36.332031 -3.320312 Z M 74.410156 -111.792969 C 74.410156 -111.792969 74.585938 -111.792969 74.585938 -111.617188 C 74.761719 -111.617188 74.761719 -111.441406 74.585938 -111.269531 C 74.585938 -111.09375 74.585938 -111.09375 74.410156 -111.09375 C 74.238281 -111.269531 74.238281 -111.441406 74.238281 -111.617188 Z M 71.09375 -44.71875 C 71.265625 -44.71875 71.265625 -44.542969 71.265625 -44.191406 L 71.09375 -44.191406 C 70.917969 -44.191406 70.742188 -44.367188 70.742188 -44.542969 C 70.917969 -44.71875 70.917969 -44.71875 71.09375 -44.71875 Z M 58.515625 -9.082031 C 58.339844 -9.082031 58.167969 -9.082031 58.339844 -9.257812 C 58.339844 -9.605469 58.339844 -9.605469 58.691406 -9.605469 C 58.691406 -9.605469 58.867188 -9.433594 58.691406 -9.257812 C 58.691406 -9.082031 58.691406 -9.082031 58.515625 -9.082031 Z M 75.460938 -44.71875 C 75.460938 -44.71875 75.285156 -44.542969 75.109375 -44.542969 C 75.109375 -44.542969 74.9375 -44.71875 74.9375 -44.890625 C 75.109375 -45.066406 75.109375 -45.066406 75.285156 -45.066406 C 75.460938 -45.066406 75.460938 -44.890625 75.460938 -44.71875 Z M 74.9375 -95.371094 C 75.109375 -95.546875 75.109375 -95.546875 75.285156 -95.546875 C 75.460938 -95.546875 75.460938 -95.371094 75.460938 -95.199219 C 75.460938 -95.199219 75.285156 -95.023438 75.109375 -95.023438 C 75.109375 -95.199219 74.9375 -95.199219 74.9375 -95.371094 Z M 74.761719 -87.6875 C 74.761719 -87.511719 74.585938 -87.335938 74.410156 -87.335938 C 74.410156 -87.335938 74.238281 -87.511719 74.238281 -87.6875 C 74.410156 -87.6875 74.410156 -87.863281 74.410156 -87.863281 C 74.585938 -87.863281 74.761719 -87.863281 74.761719 -87.6875 Z M 60.960938 -95.898438 C 60.960938 -95.722656 60.960938 -95.546875 60.785156 -95.546875 C 60.613281 -95.546875 60.613281 -95.722656 60.4375 -95.722656 C 60.4375 -95.898438 60.613281 -96.070312 60.785156 -96.070312 Z M 56.769531 -125.941406 C 56.945312 -125.941406 56.945312 -125.765625 56.945312 -125.589844 C 56.945312 -125.417969 56.945312 -125.417969 56.769531 -125.417969 C 56.59375 -125.242188 56.59375 -125.417969 56.59375 -125.589844 C 56.59375 -125.765625 56.59375 -125.765625 56.769531 -125.941406 Z M 64.804688 -74.761719 C 64.980469 -74.585938 64.980469 -74.585938 64.980469 -74.410156 C 64.980469 -74.238281 64.804688 -74.0625 64.628906 -74.238281 L 64.628906 -74.410156 C 64.628906 -74.585938 64.628906 -74.761719 64.804688 -74.761719 Z M 66.375 -15.546875 C 66.375 -15.371094 66.203125 -15.195312 66.027344 -15.371094 L 66.027344 -15.546875 C 66.027344 -15.722656 66.027344 -15.894531 66.203125 -15.894531 C 66.375 -15.722656 66.375 -15.722656 66.375 -15.546875 Z M 25.328125 -19.214844 C 25.152344 -19.214844 25.152344 -19.039062 24.980469 -19.214844 C 24.804688 -19.214844 24.804688 -19.390625 24.980469 -19.5625 C 24.980469 -19.738281 25.152344 -19.738281 25.152344 -19.5625 C 25.328125 -19.5625 25.328125 -19.390625 25.328125 -19.214844 Z M 60.261719 -58.867188 C 60.089844 -58.867188 60.089844 -59.039062 60.089844 -59.214844 C 60.089844 -59.390625 60.261719 -59.390625 60.4375 -59.390625 L 60.4375 -59.039062 C 60.4375 -59.039062 60.4375 -58.867188 60.261719 -58.867188 Z M 45.414062 -106.550781 C 45.414062 -106.378906 45.414062 -106.203125 45.242188 -106.203125 C 45.066406 -106.203125 45.066406 -106.378906 45.066406 -106.550781 C 45.066406 -106.550781 45.066406 -106.726562 45.242188 -106.726562 C 45.414062 -106.726562 45.414062 -106.726562 45.414062 -106.550781 Z M 23.929688 -8.910156 C 23.753906 -8.910156 23.582031 -9.082031 23.582031 -9.257812 C 23.582031 -9.257812 23.753906 -9.433594 23.929688 -9.257812 L 24.105469 -9.257812 C 24.105469 -9.082031 24.105469 -8.910156 23.929688 -8.910156 Z M 54.847656 -107.425781 C 54.847656 -107.25 54.671875 -107.25 54.671875 -107.25 C 54.5 -107.425781 54.5 -107.425781 54.5 -107.601562 C 54.5 -107.773438 54.671875 -107.773438 54.847656 -107.773438 Z M 70.042969 -84.890625 C 69.871094 -85.066406 69.871094 -85.242188 69.871094 -85.242188 C 69.871094 -85.417969 69.871094 -85.589844 70.042969 -85.417969 C 70.21875 -85.417969 70.21875 -85.242188 70.21875 -85.066406 Z M 66.550781 -127.164062 C 66.550781 -127.164062 66.550781 -126.988281 66.375 -126.988281 C 66.203125 -126.988281 66.203125 -126.988281 66.027344 -127.164062 C 66.027344 -127.339844 66.203125 -127.339844 66.375 -127.339844 C 66.375 -127.339844 66.550781 -127.339844 66.550781 -127.164062 Z M 56.769531 -79.128906 C 56.769531 -78.953125 56.59375 -78.953125 56.59375 -78.953125 C 56.421875 -78.953125 56.246094 -78.953125 56.421875 -79.128906 C 56.421875 -79.300781 56.421875 -79.300781 56.59375 -79.300781 C 56.769531 -79.300781 56.769531 -79.300781 56.769531 -79.128906 Z M 64.28125 -73.363281 C 64.28125 -73.363281 64.453125 -73.363281 64.453125 -73.1875 C 64.453125 -73.015625 64.453125 -73.015625 64.28125 -73.015625 C 64.105469 -73.015625 64.105469 -73.015625 64.105469 -73.1875 C 63.929688 -73.363281 64.105469 -73.363281 64.28125 -73.363281 Z M 64.804688 -29.871094 C 64.980469 -29.519531 65.152344 -29.695312 65.328125 -29.695312 C 65.152344 -29.695312 64.980469 -30.042969 64.804688 -29.871094 Z M 64.804688 -29.871094 "/></g></g></g><g clip-path="url(#1553476260)"><path fill="#d9d9d9" d="M 188.894531 63.773438 C 123.839844 63.773438 71.144531 116.46875 71.144531 181.523438 C 71.144531 246.582031 123.839844 299.273438 188.894531 299.273438 C 253.953125 299.273438 306.644531 246.582031 306.644531 181.523438 C 306.644531 116.46875 253.953125 63.773438 188.894531 63.773438 Z M 188.894531 275.726562 C 136.851562 275.726562 94.695312 233.570312 94.695312 181.523438 C 94.695312 129.480469 136.851562 87.324219 188.894531 87.324219 C 240.941406 87.324219 283.097656 129.480469 283.097656 181.523438 C 283.097656 233.570312 240.941406 275.726562 188.894531 275.726562 Z M 188.894531 275.726562 " fill-opacity="1" fill-rule="nonzero"/></g></svg>